<svg width="110" height="107" viewBox="0 0 110 107" fill="none" xmlns="http://www.w3.org/2000/svg">
<path d="M91.5339 90.4349C86.6645 79.4176 76.4334 72.5313 54.9642 72.5313C33.5219 72.5313 23.2952 79.4011 18.4169 90.3894C8.48564 81.0659 2.30491 67.9873 2.30491 53.5C2.30491 25.1906 25.8955 2.24311 55 2.24311C84.1 2.24311 107.691 25.1906 107.691 53.5C107.691 68.0079 101.492 81.1072 91.5339 90.4349ZM55 0C24.6245 0 0 23.9513 0 53.5C0 68.9539 6.7357 82.8794 17.5083 92.6449C27.3322 101.551 40.5082 107 55 107C69.4605 107 82.6231 101.568 92.438 92.6904C103.242 82.9207 110 68.9787 110 53.5C110 23.9513 85.3711 0 55 0Z" fill="black"/>
<path d="M54.9636 31C42.8336 31 33 40.8638 33 53.033C33 65.2022 42.8336 75.066 54.9636 75.066C67.0936 75.066 76.9227 65.2022 76.9227 53.033C76.9227 40.8638 67.0936 31 54.9636 31Z" fill="black"/>
</svg>
