<svg width="51" height="65" viewBox="0 0 51 65" fill="none" xmlns="http://www.w3.org/2000/svg">
<path d="M39.7369 14.7068C39.7842 6.61776 33.3082 0.0395201 25.2979 0.000177035C17.2797 -0.039166 10.7486 6.48399 10.7093 14.573C10.6699 22.662 17.1459 29.2482 25.1562 29.2718C25.1798 29.2718 25.2034 29.2718 25.2192 29.2718C33.2138 29.2718 39.6897 22.7565 39.7369 14.7068Z" fill="#040606"/>
<path d="M25.2192 64.9878C40.571 64.9878 49.7302 63.0599 50.4541 61.5885C50.4541 60.4711 50.1158 31.8212 25.2192 31.8212C0.653101 31.8212 0 59.7551 0 61.6278C0.84195 63.0835 9.96965 64.9878 25.2192 64.9878Z" fill="#040606"/>
</svg>
