<svg width="85" height="54" viewBox="0 0 85 54" fill="none" xmlns="http://www.w3.org/2000/svg">
<path d="M22.0638 25.6131C22.0638 15.1162 28.6972 5.97281 38.4622 1.11782C35.6216 0.370292 32.7023 -0.0152752 29.7594 0.00046322C13.3217 0.00046322 0 11.5045 0 25.6131C0.0944245 32.2622 2.95077 38.5807 7.89231 43.0029L1.67603 53.3424L15.7925 48.2514C20.1754 50.2421 24.9202 51.2415 29.728 51.2257C32.663 51.2257 35.598 50.8559 38.4544 50.1084C28.6972 45.2691 22.0638 36.1178 22.0638 25.6131Z" fill="#040606"/>
<path d="M54.349 0.000488281C37.9113 0.000488281 24.5896 11.4652 24.5896 25.6131C24.5896 39.7532 37.9113 51.2415 54.349 51.2415C59.1411 51.2651 63.9017 50.25 68.2688 48.2671L82.3852 53.3582L76.2162 43.0187C81.1577 38.5965 84.0219 32.2779 84.1006 25.6131C84.1006 11.5045 70.771 0.000488281 54.349 0.000488281Z" fill="#040606"/>
</svg>
