<svg width="115" height="111" viewBox="0 0 115 111" fill="none" xmlns="http://www.w3.org/2000/svg">
<path d="M93.4256 83.8232C93.3407 89.9397 90.4367 92.781 84.1148 92.8235C75.9611 92.8618 67.7985 92.832 59.6403 92.832C50.1597 92.832 40.6791 92.8576 31.1985 92.8235C24.4209 92.7937 21.5659 90.0162 21.5213 83.5467C21.5123 81.4285 21.6374 79.3102 21.4989 77.2048C21.1951 72.5174 23.706 69.5017 27.861 67.7876C32.6058 65.8225 37.4757 64.1168 42.3813 62.5558C46.5676 61.2245 47.8588 61.8157 50.4456 65.2951C52.6706 68.298 54.9179 71.2839 57.4868 74.7122C59.9218 71.4328 62.0484 68.6085 64.126 65.7587C66.5654 62.424 69.0226 61.3393 72.8694 62.5898C77.7705 64.1764 82.6181 65.9416 87.3539 67.9237C91.4241 69.6166 93.7116 72.6578 93.4524 77.1622C93.3273 79.374 93.4524 81.6029 93.4256 83.8232ZM48.5111 53.6703C41.5369 47.137 39.3387 38.8299 40.4155 29.8594C40.9784 25.1678 43.9629 21.4758 48.9713 19.902C56.419 17.5668 63.6345 17.3372 70.1932 22.3307C74.0221 25.2444 74.8933 29.2469 74.7637 35.6654C74.3125 41.1821 72.4986 48.2344 66.4671 53.6661C61.3515 58.2726 53.5418 58.3874 48.5111 53.6703ZM31.261 32.1903C31.4665 31.497 31.958 30.927 32.646 30.5782C30.7964 14.3767 54.6096 1.96936 71.8552 12.4627C73.83 13.6834 75.5813 15.0786 76.944 16.6013C78.3782 18.0773 79.3968 19.6851 80.2233 21.1823C81.0097 22.7093 81.5145 24.1682 81.8451 25.4783C82.2294 27.0648 82.4483 29.0002 82.3009 30.5697C82.9934 30.9227 83.4848 31.497 83.6903 32.1945C87.7649 32.2668 91.0488 35.1762 91.0488 38.7661C91.0488 42.3603 87.7649 45.2655 83.6903 45.342C83.4804 46.0736 82.9487 46.6776 82.1981 47.0179V47.6729C82.1981 48.4598 81.9971 49.2297 81.6173 49.923C77.6008 57.2858 75.1167 58.6001 67.5215 60.8161C66.132 61.2245 64.671 61.4201 63.2369 61.7519C62.2495 64.874 57.1741 64.1594 57.1741 61.0373C57.1741 58.5661 60.6143 57.3538 62.5622 59.1956C64.6755 58.7022 66.7664 58.4555 68.6161 57.8855C74.5046 56.082 74.7637 55.4865 78.6596 49.6593C79.0215 49.1233 79.2136 48.4981 79.2136 47.8558V46.852C78.4139 46.3799 77.8644 45.6227 77.8644 44.7125C77.8644 33.1516 77.2299 32.0712 78.9947 30.8122C78.1816 26.5672 75.6975 22.6115 72.6371 19.9786C69.8894 17.401 66.5832 15.7931 63.2369 14.8319C54.5292 12.9731 46.5944 15.4359 42.0283 19.7063C38.9188 22.3945 36.7072 26.7203 35.9522 30.8122C36.6268 31.297 37.087 31.9946 37.087 32.824V44.7125C37.087 46.1629 35.7511 47.3326 34.1025 47.3326C32.7041 47.3326 31.5916 46.4777 31.261 45.342C27.1819 45.2697 23.8981 42.3603 23.8981 38.7661C23.8981 35.172 27.1819 32.2668 31.261 32.1903ZM57.4734 0C25.7299 0 0 24.6786 0 55.125C0 85.5714 25.7299 110.25 57.4734 110.25C89.217 110.25 114.947 85.5714 114.947 55.125C114.947 24.6786 89.217 0 57.4734 0Z" fill="black"/>
</svg>
