<svg width="210" height="210" viewBox="0 0 210 210" fill="none" xmlns="http://www.w3.org/2000/svg">
<path d="M105 210C46.9919 210 0 162.685 0 105C0 47.3145 46.9919 0 105 0C163.008 0 210 46.9919 210 105C210 163.008 162.685 210 105 210ZM105 6.47594C50.5564 6.47594 6.48381 50.5564 6.48381 105C6.48381 159.444 50.5564 203.516 105 203.516C159.444 203.516 203.516 159.444 203.516 105C203.516 50.5564 159.121 6.47594 105 6.47594Z" fill="black"/>
<path d="M114.623 122.463L123.359 114.104L141.099 131.07L132.363 139.429L114.623 122.463Z" fill="black"/>
<path d="M169.106 148.388C172.965 152.079 172.965 158.072 169.106 161.773L164.446 166.224C160.582 169.925 154.32 169.925 150.462 166.224L125.485 142.322C121.616 138.622 121.616 132.633 125.48 128.943L130.139 124.481C133.998 120.791 140.265 120.791 144.129 124.481L169.106 148.388Z" fill="black"/>
<path d="M86.1203 36C56.778 36 33 58.7479 33 86.8269C33 114.901 56.778 137.654 86.1203 137.654C115.463 137.654 139.246 114.901 139.246 86.8269C139.246 58.7479 115.463 36 86.1203 36ZM86.1203 128.249C62.2006 128.249 42.8207 109.709 42.8207 86.8269C42.8207 63.9393 62.2006 45.3994 86.1203 45.3994C110.04 45.3994 129.42 63.9393 129.42 86.8269C129.42 109.709 110.04 128.249 86.1203 128.249Z" fill="black"/>
<path d="M97.0145 111.982C75.8253 111.982 58.6362 95.543 58.6362 75.264C58.6362 74.7257 58.6962 74.1978 58.7234 73.6595C55.9222 77.9865 54.2818 83.0795 54.2818 88.5401C54.2818 104.218 67.5686 116.924 83.9511 116.924C90.2784 116.924 96.1262 115.02 100.949 111.79C99.6523 111.925 98.3388 111.982 97.0145 111.982Z" fill="black"/>
</svg>
