<svg width="101" height="108" viewBox="0 0 101 108" fill="none" xmlns="http://www.w3.org/2000/svg">
<path d="M28.7926 107.752H13.425C6.25658 107.752 0.622589 102.118 0.622589 94.9494V12.9968C0.622589 5.82845 6.25658 0.194458 13.425 0.194458H74.8874C82.0637 0.194458 87.6977 5.82845 87.6977 12.9968V33.487H82.5752V12.9968C82.5752 8.64545 79.2467 5.31699 74.8874 5.31699H13.425C9.07358 5.31699 5.74512 8.64545 5.74512 12.9968V94.9494C5.74512 99.3008 9.07358 102.629 13.425 102.629H28.7926V107.752ZM40.0605 107.752L57.9855 103.912C58.4969 103.912 59.0084 103.66 59.268 103.141L96.9119 65.4968C101.783 60.634 101.783 52.4348 96.9119 47.3123C94.6064 45.0067 91.2779 43.4723 87.9495 43.4723C84.621 43.4723 81.2926 44.7549 78.987 47.3123L41.0835 85.2158C40.8317 85.4755 40.572 85.987 40.3202 86.4984L36.7321 104.683C36.4724 105.446 36.7321 106.477 37.5032 106.989C38.0147 107.5 38.5261 107.752 39.2894 107.752C39.5491 107.752 39.8087 107.752 40.0605 107.752ZM82.3155 51.1601C85.1325 48.3431 90.255 48.3431 93.072 51.1601C96.1487 54.2289 96.1487 59.0917 93.072 61.9087L56.1914 99.049L42.6257 101.866L45.1831 88.2925L82.3155 51.1601ZM64.6502 20.6846H23.67V25.7992H64.6502V20.6846ZM64.6502 41.1668H23.67V46.2893H64.6502V41.1668Z" fill="black"/>
</svg>
